HIERARCHY
ROOT Hips
{
  OFFSET 50.2519 100.567 13.8744
  CHANNELS 6 Xposition Yposition Zposition Zrotation Xrotation Yrotation
  JOINT spine
  {
    OFFSET 0 8.81704 0.507024
    CHANNELS 3 Zrotation Xrotation Yrotation
    JOINT spine1
    {
      OFFSET 0 10.7766 0
      CHANNELS 3 Zrotation Xrotation Yrotation
      JOINT spine2
      {
        OFFSET 0 10.3259 0
        CHANNELS 3 Zrotation Xrotation Yrotation
        JOINT Neck
        {
          OFFSET 0 26.511 1.26395
          CHANNELS 3 Zrotation Xrotation Yrotation
          JOINT Head
          {
            OFFSET 0 8.00966 0
            CHANNELS 3 Zrotation Xrotation Yrotation
            End Site
            {
              OFFSET 0 19.3879 -6.39386
            }
          }
        }
        JOINT RightShoulder
        {
          OFFSET -4.34795 11.1512 -0.605422
          CHANNELS 3 Zrotation Xrotation Yrotation
          JOINT RightArm
          {
            OFFSET 0 14.6258 0
            CHANNELS 3 Zrotation Xrotation Yrotation
            JOINT RightArmRoll
            {
              OFFSET 0 7.3834 0
              CHANNELS 3 Zrotation Xrotation Yrotation
              JOINT RightForeArm
              {
                OFFSET 0 21.5052 0
                CHANNELS 3 Zrotation Xrotation Yrotation
                JOINT RightForeArmRoll
                {
                  OFFSET 0 8.28532 0
                  CHANNELS 3 Zrotation Xrotation Yrotation
                  JOINT RightHand
                  {
                    OFFSET 0 16.6268 0
                    CHANNELS 3 Zrotation Xrotation Yrotation
                    End Site
                    {
                      OFFSET 0 0 0
                    }
                  }
                }
              }
            }
          }
        }
        JOINT LeftShoulder
        {
          OFFSET 4.34795 11.1512 -0.605422
          CHANNELS 3 Zrotation Xrotation Yrotation
          JOINT LeftArm
          {
            OFFSET 0 14.6258 0
            CHANNELS 3 Zrotation Xrotation Yrotation
            JOINT LeftArmRoll
            {
              OFFSET 0 7.38339 0
              CHANNELS 3 Zrotation Xrotation Yrotation
              JOINT LeftForeArm
              {
                OFFSET 0 21.5052 0
                CHANNELS 3 Zrotation Xrotation Yrotation
                JOINT LeftForeArmRoll
                {
                  OFFSET 0 8.28531 0
                  CHANNELS 3 Zrotation Xrotation Yrotation
                  JOINT LeftHand
                  {
                    OFFSET 0 16.6268 0
                    CHANNELS 3 Zrotation Xrotation Yrotation
                    End Site
                    {
                      OFFSET 0 0 0
                    }
                  }
                }
              }
            }
          }
        }
      }
    }
  }
  JOINT RightUpLeg
  {
    OFFSET -7.8151 -1.43309 -1.20217
    CHANNELS 3 Zrotation Xrotation Yrotation
    JOINT RightUpLegRoll
    {
      OFFSET 0 19.4959 0
      CHANNELS 3 Zrotation Xrotation Yrotation
      JOINT RightLeg
      {
        OFFSET 0 -24.1427 0
        CHANNELS 3 Zrotation Xrotation Yrotation
        JOINT RightLegRoll
        {
          OFFSET 0 24.2217 0
          CHANNELS 3 Zrotation Xrotation Yrotation
          JOINT RightFoot
          {
            OFFSET 0 20.1605 0
            CHANNELS 3 Zrotation Xrotation Yrotation
            JOINT RightToeBase
            {
              OFFSET 0 16.8532 0
              CHANNELS 3 Zrotation Xrotation Yrotation
              End Site
              {
                OFFSET 0.00714343 8.16187 -0.94078
              }
            }
          }
        }
      }
    }
  }
  JOINT LeftUpLeg
  {
    OFFSET 7.8151 -1.43309 -1.20217
    CHANNELS 3 Zrotation Xrotation Yrotation
    JOINT LeftUpLegRoll
    {
      OFFSET 0 19.496 0
      CHANNELS 3 Zrotation Xrotation Yrotation
      JOINT LeftLeg
      {
        OFFSET 0 24.1426 0
        CHANNELS 3 Zrotation Xrotation Yrotation
        JOINT LeftLegRoll
        {
          OFFSET 0 24.4456 0
          CHANNELS 3 Zrotation Xrotation Yrotation
          JOINT LeftFoot
          {
            OFFSET 0 19.9366 0
            CHANNELS 3 Zrotation Xrotation Yrotation
            JOINT LeftToeBase
            {
              OFFSET 0 16.8532 0
              CHANNELS 3 Zrotation Xrotation Yrotation
              End Site
              {
                OFFSET -0.0320138 8.16187 -0.94078
              }
            }
          }
        }
      }
    }
  }
}
MOTION
Frames: 13
Frame Time: 0.00208333
51.0674 100.62 13.1712 -0.323211 -2.72664 3.48898 0.0707572 -2.18412 -0.104262 0.142785 -0.356951 -0.215924 0.145014 1.28813 -0.218238 -0.890317 28.8053 1.08789 -5.58918 -6.11791 -0.152031 69.2065 -2.93305 -2.72813 105.017 16.9346 10.1108 7.30424e-006 -2.64605e-006 8.96063e-007 16.4996 0.119058 -0.140515 -5.11514e-007 4.32656e-006 -3.00785 8.02906 -4.95144 0.697681 -60.0254 -3.20084 2.1129 -112.943 14.5221 -2.18571 7.32409e-006 -1.14697e-006 3.3282e-006 -12.8179 3.29254 0.713909 6.20834e-006 5.14199e-006 3 -8.02887 -4.95144 -0.697698 178.491 -1.9731 -0.513019 180 7.0154e-015 178.894 178.734 4.96802 179.719 -2.21457e-006 -1.97484e-007 0.0308032 -18.3551 67.5454 19.1603 8.13649 25.2327 -3.48773 -175.864 -0.855972 1.56935 4.54188e-006 -4.6773e-006 -1.12193 -2.09702 -7.81377 0.184892 -4.00555e-006 -7.80443e-006 -0.137352 19.4856 68.9739 -20.3537 -8.14646 25.3895 3.28304 
51.0687 100.618 13.1643 -0.325923 -2.71702 3.49149 0.0708271 -2.18604 -0.104427 0.143452 -0.361414 -0.217033 0.145711 1.28366 -0.219372 -0.896137 28.806 1.0859 -5.58087 -6.11781 -0.154767 69.1975 -2.92555 -2.72376 105.02 16.9027 10.1572 7.30424e-006 -2.64605e-006 8.96063e-007 16.4653 0.117341 -0.137717 -5.11514e-007 4.32656e-006 -3.00785 8.02906 -4.95144 0.697681 -60.0267 -3.19418 2.10911 -112.942 14.5175 -2.18138 7.32409e-006 -1.14697e-006 3.3282e-006 -12.822 3.30309 0.716121 6.20834e-006 5.14199e-006 3 -8.02887 -4.95144 -0.697698 178.493 -1.96006 -0.514566 180 7.0154e-015 178.894 178.734 4.9744 179.719 -2.21457e-006 -1.97484e-007 0.0308032 -18.3536 67.5435 19.1587 8.13649 25.2327 -3.48773 -175.863 -0.839819 1.57192 4.54188e-006 -4.6773e-006 -1.12193 -2.09352 -7.82221 0.185379 -4.00555e-006 -7.80443e-006 -0.137352 19.4884 68.977 -20.3567 -8.14641 25.3888 3.28343 
51.0652 100.62 13.1716 -0.328696 -2.70717 3.49408 0.070931 -2.18802 -0.104589 0.144231 -0.366026 -0.218193 0.146521 1.27905 -0.22056 -0.902129 28.8071 1.08397 -5.57253 -6.11802 -0.157498 69.1883 -2.91783 -2.71928 105.023 16.8711 10.2036 7.30424e-006 -2.64605e-006 8.96063e-007 16.4311 0.114777 -0.134793 -5.11514e-007 4.32656e-006 -3.00785 8.02906 -4.95144 0.697681 -60.0283 -3.18731 2.10523 -112.941 14.5126 -2.17732 7.32409e-006 -1.14697e-006 3.3282e-006 -12.8261 3.31383 0.718396 6.20834e-006 5.14199e-006 3 -8.02887 -4.95144 -0.697698 178.495 -1.94677 -0.516177 180 7.0154e-015 178.894 178.733 4.98076 179.719 -2.21457e-006 -1.97484e-007 0.0308032 -18.3521 67.5417 19.1571 8.13649 25.2327 -3.48773 -175.862 -0.823367 1.57463 4.54188e-006 -4.6773e-006 -1.12193 -2.08987 -7.83064 0.185898 -4.00555e-006 -7.80443e-006 -0.137352 19.4911 68.98 -20.3597 -8.14636 25.3881 3.28385 
51.0557 100.615 13.1835 -0.331512 -2.69717 3.49673 0.0710586 -2.19005 -0.104749 0.145089 -0.370744 -0.219389 0.147409 1.27433 -0.221785 -0.908242 28.8085 1.08207 -5.56414 -6.11844 -0.160224 69.1791 -2.90995 -2.71471 105.027 16.8395 10.2499 7.30424e-006 -2.64605e-006 8.96063e-007 16.3968 0.111618 -0.131779 -5.11514e-007 4.32656e-006 -3.00785 8.02906 -4.95144 0.697681 -60.0302 -3.18028 2.10129 -112.94 14.5077 -2.17346 7.32409e-006 -1.14697e-006 3.3282e-006 -12.8302 3.32472 0.720717 6.20834e-006 5.14199e-006 3 -8.02887 -4.95144 -0.697698 178.497 -1.93331 -0.517833 180 7.0154e-015 178.894 178.733 4.98715 179.719 -2.21457e-006 -1.97484e-007 0.0308032 -18.3506 67.5399 19.1555 8.13649 25.2327 -3.48773 -175.86 -0.806704 1.57745 4.54188e-006 -4.6773e-006 -1.12193 -2.08611 -7.83906 0.186438 -4.00555e-006 -7.80443e-006 -0.137352 19.4939 68.983 -20.3627 -8.14631 25.3873 3.28429 
51.0669 100.613 13.1262 -0.334352 -2.68708 3.49941 0.0711999 -2.19211 -0.104908 0.145991 -0.375521 -0.220605 0.148343 1.26955 -0.223031 -0.914423 28.81 1.0802 -5.55574 -6.11899 -0.162948 69.1698 -2.90199 -2.71009 105.031 16.808 10.2962 7.30424e-006 -2.64605e-006 8.96063e-007 16.3626 0.108121 -0.128715 -5.11514e-007 4.32656e-006 -3.00785 8.02906 -4.95144 0.697681 -60.0323 -3.17317 2.09731 -112.938 14.5027 -2.16971 7.32409e-006 -1.14697e-006 3.3282e-006 -12.8343 3.33569 0.723063 6.20834e-006 5.14199e-006 3 -8.02887 -4.95144 -0.697698 178.499 -1.91975 -0.519515 180 7.0154e-015 178.894 178.733 4.99355 179.718 -2.21457e-006 -1.97484e-007 0.0308032 -18.3492 67.538 19.1539 8.13649 25.2327 -3.48773 -175.859 -0.789921 1.58034 4.54188e-006 -4.6773e-006 -1.12193 -2.08229 -7.84749 0.186992 -4.00555e-006 -7.80443e-006 -0.137352 19.4967 68.986 -20.3657 -8.14625 25.3865 3.28474 
51.0644 100.622 13.1366 -0.3372 -2.67697 3.50209 0.0713445 -2.19417 -0.105067 0.146904 -0.380314 -0.221825 0.149288 1.26476 -0.224283 -0.920622 28.8116 1.07833 -5.54733 -6.11956 -0.165671 69.1604 -2.894 -2.70547 105.035 16.7765 10.3425 7.30424e-006 -2.64605e-006 8.96063e-007 16.3284 0.104539 -0.125638 -5.11514e-007 4.32656e-006 -3.00785 8.02906 -4.95144 0.697681 -60.0343 -3.16604 2.09332 -112.937 14.4976 -2.16599 7.32409e-006 -1.14697e-006 3.3282e-006 -12.8384 3.34668 0.725415 6.20834e-006 5.14199e-006 3 -8.02887 -4.95144 -0.697698 178.501 -1.90616 -0.521203 180 7.0154e-015 178.894 178.733 4.99994 179.718 -2.21457e-006 -1.97484e-007 0.0308032 -18.3477 67.5362 19.1523 8.13649 25.2327 -3.48773 -175.858 -0.773109 1.58324 4.54188e-006 -4.6773e-006 -1.12193 -2.07845 -7.85591 0.187549 -4.00555e-006 -7.80443e-006 -0.137352 19.4995 68.9891 -20.3687 -8.1462 25.3857 3.28519 
51.064 100.62 13.1716 -0.340037 -2.6669 3.50476 0.0714823 -2.19621 -0.105226 0.147794 -0.385076 -0.223036 0.150209 1.26 -0.225524 -0.926786 28.8131 1.07645 -5.53893 -6.12007 -0.168396 69.1511 -2.88605 -2.70086 105.039 16.7449 10.3888 7.30424e-006 -2.64605e-006 8.96063e-007 16.2941 0.101127 -0.122586 -5.11514e-007 4.32656e-006 -3.00785 8.02906 -4.95144 0.697681 -60.0363 -3.15895 2.08935 -112.935 14.4926 -2.16222 7.32409e-006 -1.14697e-006 3.3282e-006 -12.8425 3.35762 0.727755 6.20834e-006 5.14199e-006 3 -8.02887 -4.95144 -0.697698 178.503 -1.89263 -0.522878 180 7.0154e-015 178.894 178.733 5.00633 179.718 -2.21457e-006 -1.97484e-007 0.0308032 -18.3462 67.5344 19.1507 8.13649 25.2327 -3.48773 -175.856 -0.756356 1.58611 4.54188e-006 -4.6773e-006 -1.12193 -2.07465 -7.86434 0.188099 -4.00555e-006 -7.80443e-006 -0.137352 19.5023 68.9921 -20.3717 -8.14614 25.3849 3.28564 
51.0561 100.62 13.1563 -0.342844 -2.65694 3.50739 0.0716032 -2.19823 -0.105387 0.148628 -0.389764 -0.224222 0.151075 1.25531 -0.226738 -0.932864 28.8144 1.07455 -5.53056 -6.12043 -0.171124 69.1419 -2.87822 -2.69632 105.043 16.7133 10.4351 7.30424e-006 -2.64605e-006 8.96063e-007 16.2599 0.0981381 -0.119598 -5.11514e-007 4.32656e-006 -3.00785 8.02906 -4.95144 0.697681 -60.0381 -3.15197 2.08542 -112.934 14.4877 -2.1583 7.32409e-006 -1.14697e-006 3.3282e-006 -12.8467 3.36847 0.730063 6.20834e-006 5.14199e-006 3 -8.02887 -4.95144 -0.697698 178.505 -1.87922 -0.524521 180 7.0154e-015 178.894 178.732 5.01271 179.718 -2.21457e-006 -1.97484e-007 0.0308032 -18.3448 67.5325 19.1491 8.13649 25.2327 -3.48773 -175.855 -0.739754 1.5889 4.54188e-006 -4.6773e-006 -1.12193 -2.07092 -7.87277 0.188634 -4.00555e-006 -7.80443e-006 -0.137352 19.5051 68.9951 -20.3746 -8.14609 25.3841 3.28607 
51.0513 100.621 13.1738 -0.345605 -2.64717 3.50996 0.0716967 -2.20019 -0.105549 0.149372 -0.394332 -0.225366 0.151849 1.25074 -0.22791 -0.938803 28.8153 1.0726 -5.52223 -6.12055 -0.173856 69.1328 -2.87056 -2.69187 105.046 16.6816 10.4814 7.30424e-006 -2.64605e-006 8.96063e-007 16.2256 0.0958278 -0.116712 -5.11514e-007 4.32656e-006 -3.00785 8.02906 -4.95144 0.697681 -60.0397 -3.14516 2.08157 -112.933 14.4829 -2.15416 7.32409e-006 -1.14697e-006 3.3282e-006 -12.8508 3.37916 0.73232 6.20834e-006 5.14199e-006 3 -8.02887 -4.95144 -0.697698 178.507 -1.866 -0.526113 180 7.0154e-015 178.894 178.732 5.01909 179.718 -2.21457e-006 -1.97484e-007 0.0308032 -18.3433 67.5307 19.1475 8.13649 25.2327 -3.48773 -175.854 -0.723391 1.59157 4.54188e-006 -4.6773e-006 -1.12193 -2.06731 -7.8812 0.189143 -4.00555e-006 -7.80443e-006 -0.137352 19.5079 68.9981 -20.3776 -8.14604 25.3834 3.28648 
51.0558 100.624 13.1738 -0.3483 -2.63764 3.51244 0.0717529 -2.20209 -0.105715 0.149993 -0.398735 -0.226456 0.152499 1.24633 -0.229023 -0.944554 28.8158 1.07059 -5.51394 -6.12033 -0.176595 69.1238 -2.86316 -2.68755 105.05 16.6497 10.5278 7.30424e-006 -2.64605e-006 8.96063e-007 16.1913 0.0944499 -0.113965 -5.11514e-007 4.32656e-006 -3.00785 8.02906 -4.95144 0.697681 -60.0408 -3.13859 2.07782 -112.932 14.4784 -2.14972 7.32409e-006 -1.14697e-006 3.3282e-006 -12.8549 3.38963 0.734507 6.20834e-006 5.14199e-006 3 -8.02887 -4.95144 -0.697698 178.509 -1.85306 -0.527635 180 7.0154e-015 178.894 178.732 5.02545 179.718 -2.21457e-006 -1.97484e-007 0.0308032 -18.3418 67.5289 19.146 8.13649 25.2327 -3.48773 -175.852 -0.707359 1.59407 4.54188e-006 -4.6773e-006 -1.12193 -2.06387 -7.88964 0.189617 -4.00555e-006 -7.80443e-006 -0.137352 19.5107 69.0012 -20.3806 -8.14599 25.3827 3.28685 
51.0563 100.622 13.1573 -0.350911 -2.62842 3.51481 0.0717615 -2.20389 -0.105884 0.150457 -0.402929 -0.227474 0.152991 1.24214 -0.230062 -0.950064 28.8158 1.0685 -5.50573 -6.11968 -0.179342 69.1151 -2.85607 -2.6834 105.053 16.6176 10.5742 7.30424e-006 -2.64605e-006 8.96063e-007 16.157 0.0942589 -0.111395 -5.11514e-007 4.32656e-006 -3.00785 8.02906 -4.95144 0.697681 -60.0413 -3.13233 2.0742 -112.933 14.4742 -2.14489 7.32409e-006 -1.14697e-006 3.3282e-006 -12.8591 3.39982 0.736604 6.20834e-006 5.14199e-006 3 -8.02887 -4.95144 -0.697698 178.511 -1.84046 -0.529067 180 7.0154e-015 178.894 178.732 5.0318 179.718 -2.21457e-006 -1.97484e-007 0.0308032 -18.3403 67.527 19.1444 8.13649 25.2327 -3.48773 -175.851 -0.691747 1.59636 4.54188e-006 -4.6773e-006 -1.12193 -2.06065 -7.89808 0.190047 -4.00555e-006 -7.80443e-006 -0.137352 19.5135 69.0042 -20.3836 -8.14595 25.382 3.28718 
51.0546 100.619 13.1644 -0.353421 -2.61959 3.51704 0.0717122 -2.20559 -0.106057 0.150731 -0.406868 -0.228406 0.15329 1.2382 -0.23101 -0.955281 28.815 1.06632 -5.49759 -6.11851 -0.1821 69.1066 -2.84937 -2.67945 105.055 16.5852 10.6206 7.30424e-006 -2.64605e-006 8.96063e-007 16.1227 0.0955091 -0.109042 -5.11514e-007 4.32656e-006 -3.00785 8.02906 -4.95144 0.697681 -60.0413 -3.12643 2.07073 -112.934 14.4703 -2.1396 7.32409e-006 -1.14697e-006 3.3282e-006 -12.8633 3.40967 0.738594 6.20834e-006 5.14199e-006 3 -8.02887 -4.95144 -0.697698 178.513 -1.82828 -0.53039 180 7.0154e-015 178.894 178.731 5.03815 179.718 -2.21457e-006 -1.97484e-007 0.0308032 -18.3389 67.5252 19.1428 8.13649 25.2327 -3.48773 -175.85 -0.676646 1.59839 4.54188e-006 -4.6773e-006 -1.12193 -2.05768 -7.90653 0.190423 -4.00555e-006 -7.80443e-006 -0.137352 19.5163 69.0072 -20.3866 -8.14591 25.3814 3.28746 
51.0577 100.619 13.1457 -0.355811 -2.6112 3.51912 0.0715949 -2.20716 -0.106236 0.15078 -0.410507 -0.229236 0.153364 1.23456 -0.231852 -0.960154 28.8134 1.06403 -5.48955 -6.11673 -0.18487 69.0985 -2.84311 -2.67574 105.057 16.5525 10.6671 7.30424e-006 -2.64605e-006 8.96063e-007 16.0883 0.0984548 -0.106943 -5.11514e-007 4.32656e-006 -3.00785 8.02906 -4.95144 0.697681 -60.0404 -3.12097 2.06745 -112.936 14.4668 -2.13374 7.32409e-006 -1.14697e-006 3.3282e-006 -12.8676 3.41913 0.740455 6.20834e-006 5.14199e-006 3 -8.02887 -4.95144 -0.697698 178.514 -1.81659 -0.531585 180 7.0154e-015 178.894 178.731 5.04446 179.718 -2.21457e-006 -1.97484e-007 0.0308032 -18.3374 67.5233 19.1411 8.13649 25.2327 -3.48773 -175.848 -0.662144 1.60011 4.54188e-006 -4.6773e-006 -1.12193 -2.05502 -7.915 0.190735 -4.00555e-006 -7.80443e-006 -0.137352 19.5191 69.0102 -20.3896 -8.14587 25.3809 3.28768 
